<?xml version="1.0" encoding="UTF-8" standalone="no"?>
<svg
   xmlns:dc="http://purl.org/dc/elements/1.1/"
   xmlns:cc="http://creativecommons.org/ns#"
   xmlns:rdf="http://www.w3.org/1999/02/22-rdf-syntax-ns#"
   xmlns:svg="http://www.w3.org/2000/svg"
   xmlns="http://www.w3.org/2000/svg"
   xmlns:xlink="http://www.w3.org/1999/xlink"
   version="1.0"
   id="svg2408"
   height="16"
   width="16">
  <defs
     id="defs2410">
    <linearGradient
       id="linearGradient3943">
      <stop
         style="stop-color:#000000;stop-opacity:0.06666667;"
         offset="0"
         id="stop3945" />
      <stop
         style="stop-color:#000000;stop-opacity:0"
         offset="1"
         id="stop3947" />
    </linearGradient>
    <linearGradient
       id="linearGradient3931">
      <stop
         id="stop3933"
         offset="0"
         style="stop-color:#4999ab;stop-opacity:1" />
      <stop
         id="stop3935"
         offset="1"
         style="stop-color:#8dd0df;stop-opacity:1" />
    </linearGradient>
    <linearGradient
       gradientUnits="userSpaceOnUse"
       y2="7.0165396"
       x2="45.447727"
       y1="92.539597"
       x1="45.447727"
       gradientTransform="scale(1.0058652,0.994169)"
       id="ButtonShadow">
      <stop
         id="stop3750"
         offset="0"
         style="stop-color:#000000;stop-opacity:1;" />
      <stop
         id="stop3752"
         offset="1"
         style="stop-color:#000000;stop-opacity:0.58823532;" />
    </linearGradient>
    <linearGradient
       id="linearGradient3737">
      <stop
         id="stop3739"
         offset="0"
         style="stop-color:#ffffff;stop-opacity:1;" />
      <stop
         id="stop3741"
         offset="1"
         style="stop-color:#ffffff;stop-opacity:0;" />
    </linearGradient>
    <linearGradient
       id="linearGradient3700">
      <stop
         id="stop3702"
         offset="0"
         style="stop-color:#2176c5;stop-opacity:1;" />
      <stop
         id="stop3704"
         offset="1"
         style="stop-color:#68baf4;stop-opacity:1;" />
    </linearGradient>
    <linearGradient
       gradientUnits="userSpaceOnUse"
       y2="138.66119"
       x2="48"
       y1="20.220806"
       x1="48"
       id="linearGradient3613"
       xlink:href="#linearGradient3737" />
    <clipPath
       id="clipPath3613"
       clipPathUnits="userSpaceOnUse">
      <rect
         style="fill:#ffffff;fill-opacity:1;fill-rule:nonzero;stroke:none"
         id="rect3615"
         width="84"
         height="84"
         x="6"
         y="6"
         rx="6"
         ry="6" />
    </clipPath>
    <linearGradient
       gradientUnits="userSpaceOnUse"
       y2="7.0165396"
       x2="45.447727"
       y1="92.539597"
       x1="45.447727"
       gradientTransform="matrix(1.0058652,0,0,0.994169,100,0)"
       id="ButtonShadow-0">
      <stop
         id="stop3750-8"
         offset="0"
         style="stop-color:#000000;stop-opacity:1;" />
      <stop
         id="stop3752-5"
         offset="1"
         style="stop-color:#000000;stop-opacity:0.58823532;" />
    </linearGradient>
    <linearGradient
       gradientUnits="userSpaceOnUse"
       y2="27.75"
       x2="-66.25"
       y1="68.75"
       x1="-65.5"
       id="linearGradient3937"
       xlink:href="#linearGradient3931" />
    <clipPath
       id="clipPath4034"
       clipPathUnits="userSpaceOnUse">
      <path
         style="color:#000000;fill:#ffffff;fill-opacity:1;fill-rule:nonzero;stroke:none;stroke-width:2;marker:none;visibility:visible;display:inline;overflow:visible;enable-background:accumulate"
         d="M 48,22 C 40.270669,22 33.752489,27.156801 31.6875,34.21875 30.814299,34.080435 29.912104,34 29,34 c -9.388841,0 -17,7.611159 -17,17 0,9.388841 7.611159,17 17,17 l 38,0 C 76.388841,68 84,60.388841 84,51 84,41.611159 76.388841,34 67,34 66.087896,34 65.185701,34.08044 64.3125,34.21875 62.247511,27.156801 55.729331,22 48,22 z"
         id="path4036" />
    </clipPath>
    <linearGradient
       id="linearGradient3943-3">
      <stop
         style="stop-color:#000000;stop-opacity:0.06666667;"
         offset="0"
         id="stop3945-4" />
      <stop
         style="stop-color:#000000;stop-opacity:0"
         offset="1"
         id="stop3947-7" />
    </linearGradient>
    <linearGradient
       xlink:href="#linearGradient3943-3"
       id="linearGradient4064"
       gradientUnits="userSpaceOnUse"
       spreadMethod="reflect"
       x1="6"
       y1="90"
       x2="8"
       y2="88"
       gradientTransform="translate(-6,-6)" />
    <linearGradient
       id="linearGradient3943-6">
      <stop
         style="stop-color:#000000;stop-opacity:0.06666667;"
         offset="0"
         id="stop3945-1" />
      <stop
         style="stop-color:#000000;stop-opacity:0"
         offset="1"
         id="stop3947-0" />
    </linearGradient>
    <linearGradient
       xlink:href="#linearGradient3943-6"
       id="linearGradient4097"
       gradientUnits="userSpaceOnUse"
       spreadMethod="reflect"
       x1="6"
       y1="90"
       x2="7"
       y2="89"
       gradientTransform="translate(-6,-6)" />
    <linearGradient
       id="linearGradient3943-9">
      <stop
         style="stop-color:#000000;stop-opacity:0.06666667;"
         offset="0"
         id="stop3945-5" />
      <stop
         style="stop-color:#000000;stop-opacity:0"
         offset="1"
         id="stop3947-04" />
    </linearGradient>
    <linearGradient
       xlink:href="#linearGradient3943-9"
       id="linearGradient3075"
       gradientUnits="userSpaceOnUse"
       spreadMethod="reflect"
       x1="6"
       y1="90"
       x2="8"
       y2="88"
       gradientTransform="translate(-6,-6)" />
    <linearGradient
       id="linearGradient3943-94">
      <stop
         style="stop-color:#000000;stop-opacity:0.06666667;"
         offset="0"
         id="stop3945-9" />
      <stop
         style="stop-color:#000000;stop-opacity:0"
         offset="1"
         id="stop3947-09" />
    </linearGradient>
    <linearGradient
       xlink:href="#linearGradient3943-94"
       id="linearGradient3108"
       gradientUnits="userSpaceOnUse"
       spreadMethod="reflect"
       x1="6"
       y1="90"
       x2="9"
       y2="87"
       gradientTransform="translate(-6,-6)" />
    <linearGradient
       id="linearGradient3943-7">
      <stop
         style="stop-color:#000000;stop-opacity:0.06666667;"
         offset="0"
         id="stop3945-6" />
      <stop
         style="stop-color:#000000;stop-opacity:0"
         offset="1"
         id="stop3947-73" />
    </linearGradient>
    <linearGradient
       xlink:href="#linearGradient3943-7"
       id="linearGradient3141"
       gradientUnits="userSpaceOnUse"
       spreadMethod="reflect"
       x1="6"
       y1="90"
       x2="7"
       y2="89"
       gradientTransform="translate(-6,-6)" />
    <clipPath
       id="clipPath2849"
       clipPathUnits="userSpaceOnUse">
      <rect
         style="fill:#ffffff;fill-opacity:1;fill-rule:evenodd;stroke:none;display:inline"
         id="rect2851"
         width="20"
         height="20"
         x="1"
         y="1"
         rx="2"
         ry="2" />
    </clipPath>
    <linearGradient
       id="linearGradient3327">
      <stop
         id="stop3330"
         offset="0"
         style="stop-color:#000000;stop-opacity:1;" />
      <stop
         id="stop3333"
         offset="1"
         style="stop-color:#000000;stop-opacity:0;" />
    </linearGradient>
    <linearGradient
       gradientUnits="userSpaceOnUse"
       y2="0.99929649"
       x2="10.31979"
       y1="21"
       x1="10.31979"
       id="ButtonColor">
      <stop
         id="stop3189"
         offset="0"
         style="stop-color:#29669f;stop-opacity:1;" />
      <stop
         id="stop3191"
         offset="1"
         style="stop-color:#88b6e0;stop-opacity:1;" />
    </linearGradient>
    <clipPath
       id="clipPath2849-8"
       clipPathUnits="userSpaceOnUse">
      <rect
         style="fill:#ffffff;fill-opacity:1;fill-rule:evenodd;stroke:none;display:inline"
         id="rect2851-0"
         width="20"
         height="20"
         x="1"
         y="1"
         rx="2"
         ry="2" />
    </clipPath>
    <linearGradient
       gradientTransform="translate(11.119372,67.741802)"
       gradientUnits="userSpaceOnUse"
       y2="7.2536583"
       x2="-3.0607977"
       y1="27.258198"
       x1="-3.0607977"
       id="linearGradient3181-3"
       xlink:href="#ButtonColor-1" />
    <linearGradient
       gradientUnits="userSpaceOnUse"
       y2="0.99929649"
       x2="10.31979"
       y1="21"
       x1="10.31979"
       id="ButtonColor-1">
      <stop
         id="stop3189-4"
         offset="0"
         style="stop-color:#29669f;stop-opacity:1;" />
      <stop
         id="stop3191-6"
         offset="1"
         style="stop-color:#88b6e0;stop-opacity:1;" />
    </linearGradient>
    <linearGradient
       y2="-9.817296"
       x2="11.375"
       y1="22"
       x1="11.375"
       gradientUnits="userSpaceOnUse"
       id="linearGradient3291"
       xlink:href="#linearGradient3327" />
    <linearGradient
       y2="5.9877172"
       x2="48"
       y1="90"
       x1="48"
       gradientTransform="matrix(0.23809524,0,0,0.23809524,-0.42857144,73.571428)"
       gradientUnits="userSpaceOnUse"
       id="linearGradient3325-0"
       xlink:href="#linearGradient3931-9" />
    <linearGradient
       id="linearGradient3931-9">
      <stop
         id="stop3933-7"
         offset="0"
         style="stop-color:#4999ab;stop-opacity:1" />
      <stop
         id="stop3935-5"
         offset="1"
         style="stop-color:#8dd0df;stop-opacity:1" />
    </linearGradient>
    <linearGradient
       xlink:href="#linearGradient3931-9"
       id="linearGradient3342"
       gradientUnits="userSpaceOnUse"
       gradientTransform="matrix(0.23809524,0,0,0.23809524,-1.4285714,-1.428572)"
       x1="48"
       y1="90"
       x2="48"
       y2="5.9877172" />
    <linearGradient
       y2="85.800003"
       x2="10.199998"
       y1="90"
       x1="6"
       spreadMethod="reflect"
       gradientTransform="matrix(0.23809524,0,0,0.23809524,-0.428571,73.571428)"
       gradientUnits="userSpaceOnUse"
       id="linearGradient3321-8"
       xlink:href="#linearGradient3943-8" />
    <linearGradient
       id="linearGradient3943-8">
      <stop
         style="stop-color:#000000;stop-opacity:0.06666667;"
         offset="0"
         id="stop3945-58" />
      <stop
         style="stop-color:#000000;stop-opacity:0"
         offset="1"
         id="stop3947-4" />
    </linearGradient>
    <linearGradient
       xlink:href="#linearGradient3943-8"
       id="linearGradient3377"
       gradientUnits="userSpaceOnUse"
       gradientTransform="matrix(0.23809524,0,0,0.23809524,-1.428571,-1.428572)"
       spreadMethod="reflect"
       x1="6"
       y1="90"
       x2="7"
       y2="89" />
    <linearGradient
       id="linearGradient3943-8-1">
      <stop
         style="stop-color:#000000;stop-opacity:0.06666667;"
         offset="0"
         id="stop3945-58-3" />
      <stop
         style="stop-color:#000000;stop-opacity:0"
         offset="1"
         id="stop3947-4-8" />
    </linearGradient>
    <linearGradient
       xlink:href="#linearGradient3943-8-1"
       id="linearGradient3410"
       gradientUnits="userSpaceOnUse"
       gradientTransform="matrix(0.23809524,0,0,0.23809524,-1.428571,-1.428572)"
       spreadMethod="reflect"
       x1="6"
       y1="90"
       x2="10.199998"
       y2="85.800003" />
    <linearGradient
       y2="85.800003"
       x2="10.199998"
       y1="90"
       x1="6"
       spreadMethod="reflect"
       gradientTransform="matrix(0.23809524,0,0,0.23809524,-0.428571,147.57143)"
       gradientUnits="userSpaceOnUse"
       id="linearGradient3321-8-3"
       xlink:href="#linearGradient3943-8-0" />
    <linearGradient
       id="linearGradient3943-8-0">
      <stop
         style="stop-color:#000000;stop-opacity:0.06666667;"
         offset="0"
         id="stop3945-58-0" />
      <stop
         style="stop-color:#000000;stop-opacity:0"
         offset="1"
         id="stop3947-4-4" />
    </linearGradient>
    <linearGradient
       xlink:href="#linearGradient3943-8-0"
       id="linearGradient4233"
       gradientUnits="userSpaceOnUse"
       gradientTransform="matrix(0.23809524,0,0,0.23809524,-1.428571,-1.428572)"
       spreadMethod="reflect"
       x1="6"
       y1="90"
       x2="10.199998"
       y2="85.800003" />
    <clipPath
       id="clipPath4302"
       clipPathUnits="userSpaceOnUse">
      <path
         style="color:#000000;fill:#ffffff;fill-opacity:1;fill-rule:nonzero;stroke:none;stroke-width:1;marker:none;visibility:visible;display:inline;overflow:visible;enable-background:accumulate"
         d="M 11,79 C 9.067003,79 7.466735,80.364767 7.09375,82.1875 6.744792,82.088078 6.380856,82 6,82 c -2.209139,0 -4,1.790861 -4,4 0,2.209139 1.790861,4 4,4 l 10,0 c 2.209139,0 4,-1.790861 4,-4 0,-2.209139 -1.790861,-4 -4,-4 -0.380856,0 -0.744792,0.08808 -1.09375,0.1875 C 14.533265,80.364767 12.932997,79 11,79 z"
         id="path4304" />
    </clipPath>
    <linearGradient
       gradientTransform="translate(-17,-2)"
       gradientUnits="userSpaceOnUse"
       y2="9"
       x2="15"
       y1="9"
       x1="1"
       id="linearGradient3204"
       xlink:href="#ButtonColor-6" />
    <linearGradient
       gradientUnits="userSpaceOnUse"
       y2="0.99929649"
       x2="10.31979"
       y1="21"
       x1="10.31979"
       id="ButtonColor-6">
      <stop
         id="stop3189-43"
         offset="0"
         style="stop-color:#29669f;stop-opacity:1;" />
      <stop
         id="stop3191-5"
         offset="1"
         style="stop-color:#88b6e0;stop-opacity:1;" />
    </linearGradient>
    <linearGradient
       gradientTransform="matrix(0,-1,1,0,0,96)"
       gradientUnits="userSpaceOnUse"
       y2="8"
       x2="29.017237"
       y1="8"
       x1="0"
       id="linearGradient3629"
       xlink:href="#linearGradient3327-3" />
    <linearGradient
       id="linearGradient3327-3">
      <stop
         id="stop3330-7"
         offset="0"
         style="stop-color:#000000;stop-opacity:1;" />
      <stop
         id="stop3333-3"
         offset="1"
         style="stop-color:#000000;stop-opacity:0;" />
    </linearGradient>
    <linearGradient
       xlink:href="#ButtonColor-6"
       id="linearGradient3059"
       gradientUnits="userSpaceOnUse"
       gradientTransform="translate(-97,-2)"
       x1="1"
       y1="9"
       x2="15"
       y2="9" />
    <linearGradient
       y2="5.9877172"
       x2="48"
       y1="90"
       x1="48"
       gradientTransform="matrix(0.23809524,0,0,0.23809524,-0.42857144,73.571428)"
       gradientUnits="userSpaceOnUse"
       id="linearGradient4417"
       xlink:href="#linearGradient3931-9" />
    <linearGradient
       y2="85.800003"
       x2="10.199998"
       y1="90"
       x1="6"
       spreadMethod="reflect"
       gradientTransform="matrix(0.23809524,0,0,0.23809524,-0.428571,73.571428)"
       gradientUnits="userSpaceOnUse"
       id="linearGradient4419"
       xlink:href="#linearGradient3943-8" />
    <linearGradient
       y2="85.800003"
       x2="10.199998"
       y1="90"
       x1="6"
       spreadMethod="reflect"
       gradientTransform="matrix(0.23809524,0,0,0.23809524,-0.428571,147.57143)"
       gradientUnits="userSpaceOnUse"
       id="linearGradient4421"
       xlink:href="#linearGradient3943-8-0" />
    <linearGradient
       y2="5.9877172"
       x2="48"
       y1="90"
       x1="48"
       gradientTransform="matrix(0.23809524,0,0,0.23809524,-0.42857144,73.571428)"
       gradientUnits="userSpaceOnUse"
       id="linearGradient4417-3"
       xlink:href="#linearGradient3931-9-7" />
    <linearGradient
       id="linearGradient3931-9-7">
      <stop
         id="stop3933-7-1"
         offset="0"
         style="stop-color:#4999ab;stop-opacity:1" />
      <stop
         id="stop3935-5-2"
         offset="1"
         style="stop-color:#8dd0df;stop-opacity:1" />
    </linearGradient>
    <linearGradient
       xlink:href="#linearGradient3931-9-7"
       id="linearGradient4438"
       gradientUnits="userSpaceOnUse"
       gradientTransform="matrix(0.19047619,0,0,0.19047619,-1.1428572,78.857142)"
       x1="48"
       y1="90"
       x2="48"
       y2="5.9877172" />
    <linearGradient
       y2="-275.39999"
       x2="-334.20001"
       y1="-275.39999"
       x1="-401.39999"
       gradientTransform="matrix(0.23809524,0,0,0.23809524,-0.42857144,73.571428)"
       gradientUnits="userSpaceOnUse"
       id="linearGradient4417-5"
       xlink:href="#linearGradient3931-9-70" />
    <linearGradient
       id="linearGradient3931-9-70">
      <stop
         id="stop3933-7-2"
         offset="0"
         style="stop-color:#4999ab;stop-opacity:1" />
      <stop
         id="stop3935-5-6"
         offset="1"
         style="stop-color:#8dd0df;stop-opacity:1" />
    </linearGradient>
    <linearGradient
       xlink:href="#linearGradient3931-9-70"
       id="linearGradient4438-0"
       gradientUnits="userSpaceOnUse"
       gradientTransform="matrix(0.19047619,0,0,0.19047619,-1.1428572,-1.1428576)"
       x1="48"
       y1="90"
       x2="48"
       y2="5.9877172" />
    <linearGradient
       id="linearGradient3943-8-7">
      <stop
         style="stop-color:#000000;stop-opacity:0.06666667;"
         offset="0"
         id="stop3945-58-1" />
      <stop
         style="stop-color:#000000;stop-opacity:0"
         offset="1"
         id="stop3947-4-84" />
    </linearGradient>
    <linearGradient
       xlink:href="#linearGradient3943-8-7"
       id="linearGradient4488"
       gradientUnits="userSpaceOnUse"
       gradientTransform="matrix(0.19047619,0,0,0.19047619,-1.1428568,-1.1428576)"
       spreadMethod="reflect"
       x1="6"
       y1="90"
       x2="10.199998"
       y2="85.800003" />
    <linearGradient
       y2="90"
       x2="5.9999981"
       y1="94.200005"
       x1="1.7999982"
       spreadMethod="reflect"
       gradientTransform="matrix(0.23809524,0,0,0.23809524,-0.428571,73.571428)"
       gradientUnits="userSpaceOnUse"
       id="linearGradient4419-6"
       xlink:href="#linearGradient3943-8-8" />
    <linearGradient
       id="linearGradient3943-8-8">
      <stop
         style="stop-color:#000000;stop-opacity:0.06666667;"
         offset="0"
         id="stop3945-58-9" />
      <stop
         style="stop-color:#000000;stop-opacity:0"
         offset="1"
         id="stop3947-4-6" />
    </linearGradient>
    <linearGradient
       xlink:href="#linearGradient3943-8-8"
       id="linearGradient4488-3"
       gradientUnits="userSpaceOnUse"
       gradientTransform="matrix(0.19047619,0,0,0.19047619,-1.1428568,-1.1428576)"
       spreadMethod="reflect"
       x1="6"
       y1="90"
       x2="10.199998"
       y2="85.800003" />
    <linearGradient
       y2="85.800003"
       x2="10.199998"
       y1="90"
       x1="6"
       spreadMethod="reflect"
       gradientTransform="matrix(0.19047619,0,0,0.19047619,-1.1428568,138.05714)"
       gradientUnits="userSpaceOnUse"
       id="linearGradient4525"
       xlink:href="#linearGradient3943-8-0" />
    <linearGradient
       y2="85.800003"
       x2="10.199998"
       y1="90"
       x1="6"
       spreadMethod="reflect"
       gradientTransform="matrix(0.19047619,0,0,0.19047619,-1.1428568,78.857142)"
       gradientUnits="userSpaceOnUse"
       id="linearGradient4534"
       xlink:href="#linearGradient3943-8" />
    <clipPath
       id="clipPath4573"
       clipPathUnits="userSpaceOnUse">
      <path
         style="color:#000000;fill:#ffffff;fill-opacity:1;fill-rule:nonzero;stroke:none;stroke-width:0.80000001;marker:none;visibility:visible;display:inline;overflow:visible;enable-background:accumulate"
         d="m 8,83 c -1.656854,0 -3,1.343146 -3,3 0,0.0766 0.02561,0.143592 0.03125,0.21875 C 4.70449,86.096666 4.36934,86 4,86 c -1.656854,0 -3,1.343146 -3,3 0,1.656854 1.343146,3 3,3 l 8,0 c 1.656854,0 3,-1.343146 3,-3 0,-1.656854 -1.343146,-3 -3,-3 -0.36934,0 -0.70449,0.09667 -1.03125,0.21875 C 10.97439,86.143592 11,86.076601 11,86 11,84.343146 9.656854,83 8,83 z"
         id="path4575" />
    </clipPath>
    <linearGradient
       gradientTransform="matrix(0.13681467,0,0,0.13681467,1.6391399,84.374066)"
       y2="53.006302"
       x2="46.492699"
       y1="0"
       x1="46.492699"
       gradientUnits="userSpaceOnUse"
       id="SVGID_1_">
      <stop
         id="stop4"
         style="stop-color:#F79810"
         offset="0" />
      <stop
         id="stop6"
         style="stop-color:#F8310E"
         offset="1" />
    </linearGradient>
  </defs>
  <metadata
     id="metadata2413">
    <rdf:RDF>
      <cc:Work
         rdf:about="">
        <dc:format>image/svg+xml</dc:format>
        <dc:type
           rdf:resource="http://purl.org/dc/dcmitype/StillImage" />
        <dc:title></dc:title>
      </cc:Work>
    </rdf:RDF>
  </metadata>
  <g
     style="display:inline"
     transform="translate(0,-80)"
     id="layer1">
    <rect
       transform="matrix(0,-1,1,0,0,0)"
       style="fill:url(#linearGradient4417-5);fill-opacity:1;fill-rule:nonzero;stroke:none;display:inline;color:#000000;stroke-width:0.80000000999999998;marker:none;visibility:visible;overflow:visible;enable-background:accumulate"
       id="rect3196"
       width="16"
       height="16"
       x="-96"
       y="0"
       rx="2"
       ry="2" />
    <path
       id="rect2835"
       d="m 0,94 c 0,1.108 0.892,2 2,2 l 12,0 c 1.108,0 2,-0.892 2,-2 l 0,-12 c 0,-1.108 -0.892,-2 -2,-2 L 2,80 c -1.108,0 -2,0.892 -2,2 l 0,12 z m 0.96875,0 0,-12 c 0,-0.583199 0.4480507,-1.03125 1.03125,-1.03125 l 12,0 c 0.583199,0 1.03125,0.448051 1.03125,1.03125 l 0,12 c 0,0.583199 -0.448051,1.03125 -1.03125,1.03125 l -12,0 C 1.4168007,95.03125 0.96875,94.583199 0.96875,94 z"
       style="opacity:0.4;fill:url(#linearGradient3629);fill-opacity:1;fill-rule:nonzero;stroke:none;display:inline" />
    <path
       style="opacity:0.35;fill:#ffffff;fill-opacity:1;fill-rule:nonzero;stroke:none;display:inline"
       d="m 2,80.96875 c -0.5831993,0 -1.03125,0.448051 -1.03125,1.03125 l 0,1 c 0,-0.583199 0.4480507,-1.03125 1.03125,-1.03125 l 12,0 c 0.583199,0 1.03125,0.448051 1.03125,1.03125 l 0,-1 c 0,-0.583199 -0.448051,-1.03125 -1.03125,-1.03125 l -12,0 z"
       id="path2843" />
    <rect
       style="color:#000000;fill:url(#linearGradient4534);fill-opacity:1;fill-rule:nonzero;stroke:none;marker:none;visibility:visible;display:inline;overflow:visible;enable-background:accumulate"
       id="rect3360"
       width="16"
       height="16"
       x="0"
       y="80"
       rx="2"
       ry="2" />
    <path
       id="path8"
       d="m 1.783206,87.678413 c -0.026542,0 -0.047611,0.02052 -0.051027,0.0498 l -0.093031,0.706648 0.093031,0.694471 c 0.00336,0.02929 0.024485,0.04967 0.051027,0.04967 0.025722,0 0.046657,-0.02025 0.050758,-0.04939 l 0,0 0,-1.38e-4 c 0,0 0,0 0,1.38e-4 l 0.1102685,-0.69474 -0.1102688,-0.706784 c -0.00403,-0.02914 -0.02517,-0.04967 -0.050758,-0.04967 z m 0.5231788,-0.38609 c -0.00444,-0.03037 -0.026139,-0.05131 -0.052949,-0.05131 -0.026959,0 -0.049252,0.02162 -0.052949,0.05131 0,2.73e-4 -0.1250457,1.142538 -0.1250457,1.142538 l 0.1250457,1.117229 c 0.0035,0.02996 0.025856,0.05158 0.052949,0.05158 0.026676,0 0.048432,-0.02107 0.052815,-0.05131 l 0.1422871,-1.117503 -0.14215,-1.142538 z m 1.970679,-1.053883 c -0.051309,0 -0.093717,0.042 -0.096178,0.09536 l -0.099606,2.102022 0.099606,1.358432 c 0.00255,0.05308 0.044868,0.09495 0.096178,0.09495 0.051027,0 0.093314,-0.042 0.096312,-0.09522 l 0,4.1e-4 0.1125949,-1.358569 -0.1125949,-2.102022 c -0.00296,-0.05335 -0.045285,-0.09536 -0.096312,-0.09536 z m -1.0199543,0.730589 c -0.039396,0 -0.071558,0.03146 -0.074705,0.07347 L 3.070213,88.435272 3.1824045,89.78276 c 0.00296,0.04172 0.035295,0.0732 0.074705,0.0732 0.038993,0 0.071142,-0.03146 0.07457,-0.0732 L 3.459186,88.43527 3.3316798,87.042223 c -0.00336,-0.04174 -0.035578,-0.0732 -0.07457,-0.0732 z m 2.0564616,2.920036 c 0.063612,0 0.1153378,-0.05131 0.1179329,-0.116978 L 5.529188,88.436503 5.431639,85.637959 C 5.429089,85.572289 5.377318,85.52098 5.3137062,85.52098 c -0.064163,0 -0.1160235,0.05144 -0.1180673,0.117113 0,1.36e-4 -0.086604,2.79827 -0.086604,2.79827 l 0.086604,1.336132 c 0.00202,0.06512 0.053904,0.116561 0.1179328,0.116561 z m 2.121995,0.0063 c 0.087559,0 0.1598003,-0.0721 0.161442,-0.160756 l 0,9.57e-4 0,-9.57e-4 0.06813,-1.297278 -0.06813,-3.232109 c -0.00148,-0.08851 -0.073885,-0.160758 -0.161442,-0.160758 -0.087693,0 -0.1600719,0.0721 -0.1614406,0.160895 l -0.060882,3.230878 c 0,0.002 0.060882,1.299192 0.060882,1.299192 0.00134,0.08784 0.073884,0.159936 0.1614406,0.159936 z m -1.069069,-0.0051 c 0.076211,0 0.1376349,-0.06115 0.1396881,-0.139141 l 0,9.57e-4 0.082907,-1.315336 -0.083041,-2.818793 c -0.00202,-0.07798 -0.063477,-0.139003 -0.1396881,-0.139003 -0.076748,0 -0.1381822,0.06102 -0.1398239,0.139003 l -0.07375,2.81893 0.073884,1.315062 c 0.00161,0.07716 0.063074,0.138321 0.1398253,0.138321 z m -2.6013944,-0.01237 c 0.045285,0 0.081952,-0.03626 0.085367,-0.08401 L 3.9705944,88.435189 3.8504699,87.142701 c -0.00323,-0.04774 -0.039947,-0.08373 -0.085367,-0.08373 -0.045971,0 -0.082638,0.03625 -0.085502,0.08428 l -0.1057644,1.29194 0.1057644,1.35857 c 0.00296,0.04788 0.039544,0.08414 0.085502,0.08414 z m -1.0118814,-0.07442 c 0.033117,0 0.059928,-0.02614 0.06376,-0.06225 l 0.1349001,-1.306307 -0.1347629,-1.35556 c -0.00403,-0.03626 -0.030777,-0.06239 -0.063894,-0.06239 -0.03352,0 -0.060331,0.02627 -0.06376,0.06239 0,1.38e-4 -0.1187531,1.35556 -0.1187531,1.35556 l 0.1187531,1.306033 c 0.00323,0.03626 0.030105,0.06252 0.06376,0.06252 z m 4.1457578,-4.232498 c -0.082772,0 -0.149127,0.0658 -0.1507687,0.150086 l -0.067309,2.715908 0.067309,1.306853 c 0.00161,0.08319 0.067861,0.148992 0.1507687,0.148992 0.082638,0 0.1485811,-0.06567 0.1504972,-0.149949 l 0,0.0011 0.075525,-1.306854 -0.075525,-2.716318 c -0.00188,-0.08401 -0.067861,-0.149812 -0.1504972,-0.149812 z m -2.1055777,4.320752 c 0.057185,0 0.104393,-0.04666 0.1071225,-0.106168 L 5.0056026,88.436157 4.9005239,85.853371 c -0.00282,-0.05965 -0.049938,-0.106168 -0.1071225,-0.106168 -0.057736,0 -0.1047963,0.04666 -0.1072568,0.106168 0,1.35e-4 -0.093031,2.582786 -0.093031,2.582786 l 0.093166,1.349951 c 0.00229,0.05896 0.049386,0.105617 0.1071224,0.105617 z m 1.1733235,-0.127372 0,-6.84e-4 0.090302,-1.327103 -0.090302,-2.892808 c -0.00215,-0.07183 -0.058825,-0.128192 -0.1287433,-0.128192 -0.070321,0 -0.1269683,0.05623 -0.1288776,0.128192 l -0.080177,2.892672 0.080312,1.327786 c 0.00188,0.07114 0.058556,0.127372 0.1287432,0.127372 0.070053,0 0.1264172,-0.05623 0.1287433,-0.127789 l 0,5.48e-4 z m 6.8295141,-2.995284 c -0.214388,0 -0.418927,0.04338 -0.605268,0.121496 C 12.066477,85.480283 10.883843,84.374 9.4412704,84.374 c -0.3529828,0 -0.6970707,0.0695 -1.000937,0.187025 -0.1180673,0.0457 -0.1495385,0.09276 -0.150633,0.184016 l 0,4.966374 c 0.00123,0.09577 0.075525,0.175533 0.1689663,0.184973 0.00403,4.1e-4 4.3095243,0.0026 4.3374353,0.0026 0.864122,0 1.56475,-0.700628 1.56475,-1.564887 0,-0.864258 -0.700492,-1.565023 -1.564613,-1.565023 z M 7.9698283,84.740659 c -0.093986,0 -0.1711552,0.07717 -0.172524,0.171976 l -0.07059,3.52503 0.070738,1.279354 c 0.00123,0.09345 0.078402,0.170472 0.1723869,0.170472 0.093717,0 0.1708809,-0.07703 0.1722497,-0.17184 l 0,0.0015 0.076748,-1.279491 -0.076748,-3.525303 c -0.00134,-0.09454 -0.078537,-0.171702 -0.1722497,-0.171702 z m -5.0670685,6.153104 c -0.1851093,-0.04351 -0.235184,-0.06677 -0.235184,-0.140098 0,-0.05171 0.041736,-0.105214 0.1667773,-0.105214 0.1068535,0 0.1903087,0.04336 0.2652836,0.120125 l 0.168419,-0.163357 C 3.1579214,90.49015 3.0245246,90.42175 2.842836,90.42175 c -0.2303959,0 -0.4171482,0.130115 -0.4171482,0.342037 0,0.230123 0.1502215,0.298529 0.3652946,0.348467 0.2201355,0.04994 0.2602213,0.08346 0.2602213,0.158568 0,0.08838 -0.065266,0.126821 -0.2034425,0.126821 -0.1117747,0 -0.216852,-0.03831 -0.2986668,-0.133664 l -0.168419,0.150222 c 0.088379,0.130115 0.2587167,0.211789 0.4536777,0.211789 0.3187776,0 0.4588758,-0.150086 0.4588758,-0.371862 0,-0.253654 -0.2052214,-0.317 -0.3904691,-0.360369 z m 1.0745427,-0.472011 c -0.3185047,0 -0.5068987,0.246813 -0.5068987,0.602121 0,0.355308 0.188394,0.601985 0.5068987,0.601985 0.3185047,0 0.5071717,-0.246677 0.5071717,-0.601985 0,-0.355308 -0.188667,-0.602121 -0.5071717,-0.602121 z m 0,0.972478 c -0.188394,0 -0.2669254,-0.161852 -0.2669254,-0.370221 0,-0.208505 0.078537,-0.370357 0.2669254,-0.370357 0.188667,0 0.2669254,0.161852 0.2669254,0.370357 0,0.208369 -0.078254,0.370221 -0.2669254,0.370221 z m 1.4496877,-0.298529 c 0,0.186752 -0.091942,0.30195 -0.2402463,0.30195 -0.1484439,0 -0.2384674,-0.118484 -0.2384674,-0.305234 l 0,-0.652469 -0.2336794,0 0,0.655753 c 0,0.340121 0.1903088,0.530293 0.4721468,0.530293 0.296888,0 0.4737899,-0.195234 0.4737899,-0.533577 l 0,-0.652469 -0.2335436,0 0,0.655753 z m 1.24091,-0.161852 c 0,0.06512 0.00323,0.211789 0.00323,0.255159 -0.015046,-0.03009 -0.053353,-0.08838 -0.081683,-0.13189 l -0.4138634,-0.617309 -0.2234189,0 0,1.16785 0.2302587,0 0,-0.513876 c 0,-0.06512 -0.00323,-0.211788 -0.00323,-0.255159 0.014911,0.02996 0.053501,0.08838 0.081683,0.13189 l 0.4287761,0.637145 0.2085062,0 0,-1.16785 -0.2302587,0 0,0.494038 z m 0.8957247,-0.493901 -0.3652946,0 0,1.16785 0.3484673,0 c 0.3003072,0 0.5973322,-0.173618 0.5973322,-0.583925 0,-0.427135 -0.2469503,-0.583925 -0.5805049,-0.583925 z m -0.016834,0.941011 -0.1149209,0 0,-0.714036 0.1234052,0 c 0.2469504,0 0.3487416,0.11835 0.3487416,0.35695 0,0.213568 -0.1119092,0.357086 -0.3572232,0.357086 z M 8.866368,90.653515 c 0.1050787,0 0.1718396,0.04679 0.2135672,0.126821 l 0.216852,-0.10001 c -0.073468,-0.151727 -0.2070017,-0.25858 -0.4271358,-0.25858 -0.3049595,0 -0.5186638,0.246814 -0.5186638,0.602122 0,0.368578 0.2050843,0.601985 0.510318,0.601985 0.2119255,0 0.3520236,-0.09837 0.4320609,-0.263507 L 9.0966267,91.245503 c -0.061703,0.103572 -0.1235397,0.148581 -0.2286171,0.148581 -0.175123,0 -0.2769129,-0.160211 -0.2769129,-0.37022 -1.371e-4,-0.216715 0.1002786,-0.370358 0.2752712,-0.370358 z m 0.8661735,-0.213567 -0.233542,0 0,1.16785 0.7018585,0 0,-0.230396 -0.4683165,0 0,-0.937454 z m 1.0835725,-0.01819 c -0.318778,0 -0.507172,0.246813 -0.507172,0.602121 0,0.355308 0.188394,0.601985 0.507172,0.601985 0.318504,0 0.507036,-0.246677 0.507036,-0.601985 0,-0.355308 -0.188532,-0.602121 -0.507036,-0.602121 z m 0,0.972478 c -0.188667,0 -0.266926,-0.161852 -0.266926,-0.370221 0,-0.208505 0.07826,-0.370357 0.266926,-0.370357 0.188257,0 0.266652,0.161852 0.266652,0.370357 0,0.208369 -0.07839,0.370221 -0.266652,0.370221 z m 1.449415,-0.298529 c 0,0.186752 -0.09152,0.30195 -0.239974,0.30195 -0.148717,0 -0.238604,-0.118484 -0.238604,-0.305234 l 0,-0.652469 -0.233543,0 0,0.655753 c 0,0.340121 0.190173,0.530293 0.472147,0.530293 0.296889,0 0.473653,-0.195234 0.473653,-0.533577 l 0,-0.652469 -0.233679,0 0,0.655753 z m 0.890801,-0.655753 -0.365159,0 0,1.16785 0.348467,0 c 0.300445,0 0.597196,-0.173618 0.597196,-0.583925 0,-0.427135 -0.246814,-0.583925 -0.580504,-0.583925 z m -0.01669,0.941011 -0.115056,0 0,-0.714036 0.12354,0 c 0.246678,0 0.348467,0.11835 0.348467,0.35695 0,0.213568 -0.111774,0.357086 -0.356948,0.357086 z"
       style="fill:url(#SVGID_1_)" />
  </g>
</svg>
