<?xml version="1.0" encoding="UTF-8" standalone="no"?>
<svg
   xmlns:dc="http://purl.org/dc/elements/1.1/"
   xmlns:cc="http://creativecommons.org/ns#"
   xmlns:rdf="http://www.w3.org/1999/02/22-rdf-syntax-ns#"
   xmlns:svg="http://www.w3.org/2000/svg"
   xmlns="http://www.w3.org/2000/svg"
   xmlns:xlink="http://www.w3.org/1999/xlink"
   version="1.0"
   id="svg2408"
   height="96"
   width="96">
  <defs
     id="defs2410">
    <linearGradient
       id="linearGradient3943">
      <stop
         style="stop-color:#000000;stop-opacity:0.06666667;"
         offset="0"
         id="stop3945" />
      <stop
         style="stop-color:#000000;stop-opacity:0"
         offset="1"
         id="stop3947" />
    </linearGradient>
    <linearGradient
       id="linearGradient3931">
      <stop
         id="stop3933"
         offset="0"
         style="stop-color:#4999ab;stop-opacity:1" />
      <stop
         id="stop3935"
         offset="1"
         style="stop-color:#8dd0df;stop-opacity:1" />
    </linearGradient>
    <linearGradient
       gradientUnits="userSpaceOnUse"
       y2="7.0165396"
       x2="45.447727"
       y1="92.539597"
       x1="45.447727"
       gradientTransform="scale(1.0058652,0.994169)"
       id="ButtonShadow">
      <stop
         id="stop3750"
         offset="0"
         style="stop-color:#000000;stop-opacity:1;" />
      <stop
         id="stop3752"
         offset="1"
         style="stop-color:#000000;stop-opacity:0.58823532;" />
    </linearGradient>
    <linearGradient
       id="linearGradient3737">
      <stop
         id="stop3739"
         offset="0"
         style="stop-color:#ffffff;stop-opacity:1;" />
      <stop
         id="stop3741"
         offset="1"
         style="stop-color:#ffffff;stop-opacity:0;" />
    </linearGradient>
    <linearGradient
       id="linearGradient3700">
      <stop
         id="stop3702"
         offset="0"
         style="stop-color:#2176c5;stop-opacity:1;" />
      <stop
         id="stop3704"
         offset="1"
         style="stop-color:#68baf4;stop-opacity:1;" />
    </linearGradient>
    <filter
       id="filter3174">
      <feGaussianBlur
         id="feGaussianBlur3176"
         stdDeviation="1.71" />
    </filter>
    <linearGradient
       y2="63.893143"
       x2="36.357143"
       y1="6"
       x1="36.357143"
       gradientUnits="userSpaceOnUse"
       id="linearGradient3188"
       xlink:href="#linearGradient3737" />
    <filter
       height="1.384"
       y="-0.192"
       width="1.384"
       x="-0.192"
       id="filter3794">
      <feGaussianBlur
         id="feGaussianBlur3796"
         stdDeviation="5.28" />
    </filter>
    <linearGradient
       gradientUnits="userSpaceOnUse"
       y2="138.66119"
       x2="48"
       y1="20.220806"
       x1="48"
       id="linearGradient3613"
       xlink:href="#linearGradient3737" />
    <radialGradient
       gradientUnits="userSpaceOnUse"
       gradientTransform="matrix(1.1573129,0,0,0.99590774,-7.5510206,0.19713193)"
       r="42"
       fy="90.171875"
       fx="48"
       cy="90.171875"
       cx="48"
       id="radialGradient3619"
       xlink:href="#linearGradient3737" />
    <clipPath
       id="clipPath3613"
       clipPathUnits="userSpaceOnUse">
      <rect
         style="fill:#ffffff;fill-opacity:1;fill-rule:nonzero;stroke:none"
         id="rect3615"
         width="84"
         height="84"
         x="6"
         y="6"
         rx="6"
         ry="6" />
    </clipPath>
    <linearGradient
       y2="5.9877172"
       x2="48"
       y1="90"
       x1="48"
       gradientUnits="userSpaceOnUse"
       id="linearGradient3617"
       xlink:href="#linearGradient3931" />
    <linearGradient
       gradientUnits="userSpaceOnUse"
       y2="7.0165396"
       x2="45.447727"
       y1="92.539597"
       x1="45.447727"
       gradientTransform="matrix(1.0058652,0,0,0.994169,100,0)"
       id="ButtonShadow-0">
      <stop
         id="stop3750-8"
         offset="0"
         style="stop-color:#000000;stop-opacity:1;" />
      <stop
         id="stop3752-5"
         offset="1"
         style="stop-color:#000000;stop-opacity:0.58823532;" />
    </linearGradient>
    <linearGradient
       y2="90.238609"
       x2="32.251034"
       y1="6.1317081"
       x1="32.251034"
       gradientTransform="matrix(1.0238095,0,0,1.0119048,-1.1428571,-98.071429)"
       gradientUnits="userSpaceOnUse"
       id="linearGradient3780"
       xlink:href="#ButtonShadow-0" />
    <linearGradient
       y2="90.238609"
       x2="32.251034"
       y1="6.1317081"
       x1="32.251034"
       gradientTransform="matrix(1.0238095,0,0,1.0119048,-1.1428571,-98.071429)"
       gradientUnits="userSpaceOnUse"
       id="linearGradient3772"
       xlink:href="#ButtonShadow-0" />
    <linearGradient
       y2="90.238609"
       x2="32.251034"
       y1="6.1317081"
       x1="32.251034"
       gradientTransform="matrix(1.0238095,0,0,1.0119048,-1.1428571,-98.071429)"
       gradientUnits="userSpaceOnUse"
       id="linearGradient3725"
       xlink:href="#ButtonShadow-0" />
    <linearGradient
       y2="90.238609"
       x2="32.251034"
       y1="6.1317081"
       x1="32.251034"
       gradientTransform="translate(0,-97)"
       gradientUnits="userSpaceOnUse"
       id="linearGradient3721"
       xlink:href="#ButtonShadow-0" />
    <linearGradient
       xlink:href="#ButtonShadow-0"
       id="linearGradient3026"
       gradientUnits="userSpaceOnUse"
       gradientTransform="matrix(1.0238095,0,0,1.0119048,-1.1428571,-98.071429)"
       x1="32.251034"
       y1="6.1317081"
       x2="32.251034"
       y2="90.238609" />
    <linearGradient
       gradientUnits="userSpaceOnUse"
       y2="27.75"
       x2="-66.25"
       y1="68.75"
       x1="-65.5"
       id="linearGradient3937"
       xlink:href="#linearGradient3931" />
    <linearGradient
       spreadMethod="reflect"
       y2="89"
       x2="7"
       y1="90"
       x1="6"
       gradientUnits="userSpaceOnUse"
       id="linearGradient3941"
       xlink:href="#linearGradient3943" />
    <clipPath
       id="clipPath4034"
       clipPathUnits="userSpaceOnUse">
      <path
         style="color:#000000;fill:#ffffff;fill-opacity:1;fill-rule:nonzero;stroke:none;stroke-width:2;marker:none;visibility:visible;display:inline;overflow:visible;enable-background:accumulate"
         d="M 48,22 C 40.270669,22 33.752489,27.156801 31.6875,34.21875 30.814299,34.080435 29.912104,34 29,34 c -9.388841,0 -17,7.611159 -17,17 0,9.388841 7.611159,17 17,17 l 38,0 c 9.388841,0 17,-7.611159 17,-17 0,-9.388841 -7.611159,-17 -17,-17 -0.912104,0 -1.814299,0.08044 -2.6875,0.21875 C 62.247511,27.156801 55.729331,22 48,22 z"
         id="path4036" />
    </clipPath>
    <linearGradient
       id="linearGradient3943-3">
      <stop
         style="stop-color:#000000;stop-opacity:0.06666667;"
         offset="0"
         id="stop3945-4" />
      <stop
         style="stop-color:#000000;stop-opacity:0"
         offset="1"
         id="stop3947-7" />
    </linearGradient>
    <linearGradient
       xlink:href="#linearGradient3943-3"
       id="linearGradient4064"
       gradientUnits="userSpaceOnUse"
       spreadMethod="reflect"
       x1="6"
       y1="90"
       x2="8"
       y2="88"
       gradientTransform="translate(-6,-6)" />
    <linearGradient
       id="linearGradient3943-6">
      <stop
         style="stop-color:#000000;stop-opacity:0.06666667;"
         offset="0"
         id="stop3945-1" />
      <stop
         style="stop-color:#000000;stop-opacity:0"
         offset="1"
         id="stop3947-0" />
    </linearGradient>
    <linearGradient
       xlink:href="#linearGradient3943-6"
       id="linearGradient4097"
       gradientUnits="userSpaceOnUse"
       spreadMethod="reflect"
       x1="6"
       y1="90"
       x2="7"
       y2="89"
       gradientTransform="translate(-6,-6)" />
    <linearGradient
       id="linearGradient3943-9">
      <stop
         style="stop-color:#000000;stop-opacity:0.06666667;"
         offset="0"
         id="stop3945-5" />
      <stop
         style="stop-color:#000000;stop-opacity:0"
         offset="1"
         id="stop3947-04" />
    </linearGradient>
    <linearGradient
       xlink:href="#linearGradient3943-9"
       id="linearGradient3075"
       gradientUnits="userSpaceOnUse"
       spreadMethod="reflect"
       x1="6"
       y1="90"
       x2="8"
       y2="88"
       gradientTransform="translate(-6,-6)" />
    <linearGradient
       id="linearGradient3943-94">
      <stop
         style="stop-color:#000000;stop-opacity:0.06666667;"
         offset="0"
         id="stop3945-9" />
      <stop
         style="stop-color:#000000;stop-opacity:0"
         offset="1"
         id="stop3947-09" />
    </linearGradient>
    <linearGradient
       xlink:href="#linearGradient3943-94"
       id="linearGradient3108"
       gradientUnits="userSpaceOnUse"
       spreadMethod="reflect"
       x1="6"
       y1="90"
       x2="9"
       y2="87"
       gradientTransform="translate(-6,-6)" />
    <linearGradient
       id="linearGradient3943-7">
      <stop
         style="stop-color:#000000;stop-opacity:0.06666667;"
         offset="0"
         id="stop3945-6" />
      <stop
         style="stop-color:#000000;stop-opacity:0"
         offset="1"
         id="stop3947-73" />
    </linearGradient>
    <linearGradient
       xlink:href="#linearGradient3943-7"
       id="linearGradient3141"
       gradientUnits="userSpaceOnUse"
       spreadMethod="reflect"
       x1="6"
       y1="90"
       x2="7"
       y2="89"
       gradientTransform="translate(-6,-6)" />
    <linearGradient
       gradientTransform="matrix(0.74676378,0,0,0.74676378,13.281085,28.208519)"
       y2="53.006302"
       x2="46.492699"
       y1="0"
       x1="46.492699"
       gradientUnits="userSpaceOnUse"
       id="SVGID_1_">
      <stop
         id="stop4"
         style="stop-color:#F79810"
         offset="0" />
      <stop
         id="stop6"
         style="stop-color:#F8310E"
         offset="1" />
    </linearGradient>
  </defs>
  <metadata
     id="metadata2413">
    <rdf:RDF>
      <cc:Work
         rdf:about="">
        <dc:format>image/svg+xml</dc:format>
        <dc:type
           rdf:resource="http://purl.org/dc/dcmitype/StillImage" />
        <dc:title></dc:title>
      </cc:Work>
    </rdf:RDF>
  </metadata>
  <g
     style="display:none"
     id="layer2">
    <rect
       ry="6"
       rx="6"
       y="7"
       x="5"
       height="85"
       width="86"
       id="rect3745"
       style="opacity:0.9;fill:url(#ButtonShadow);fill-opacity:1;fill-rule:nonzero;stroke:none;filter:url(#filter3174)" />
  </g>
  <g
     id="layer3">
    <path
       transform="scale(1,-1)"
       d="m 12,-95.03125 c -5.5110903,0 -10.03125,4.52016 -10.03125,10.03125 l 0,71 c 0,5.5110902 4.5201598,10.03125 10.03125,10.03125 l 72,0 c 5.51109,0 10.03125,-4.5201597 10.03125,-10.03125 l 0,-71 c 0,-5.51109 -4.52016,-10.03125 -10.03125,-10.03125 l -72,0 z"
       id="path3786"
       style="opacity:0.07999998;fill:url(#linearGradient3026);fill-opacity:1;fill-rule:nonzero;stroke:none;display:inline" />
    <path
       transform="scale(1,-1)"
       d="m 12,-94.03125 c -4.971633,0 -9.03125,4.059617 -9.03125,9.03125 l 0,71 c 0,4.9716329 4.0596171,9.03125 9.03125,9.03125 l 72,0 c 4.971633,0 9.03125,-4.059617 9.03125,-9.03125 l 0,-71 c 0,-4.971633 -4.059617,-9.03125 -9.03125,-9.03125 l -72,0 z"
       id="path3778"
       style="opacity:0.1;fill:url(#linearGradient3780);fill-opacity:1;fill-rule:nonzero;stroke:none;display:inline" />
    <path
       transform="scale(1,-1)"
       d="m 12,-93 c -4.4091333,0 -8,3.590867 -8,8 l 0,71 c 0,4.4091333 3.5908667,8 8,8 l 72,0 c 4.409133,0 8,-3.5908667 8,-8 l 0,-71 c 0,-4.409133 -3.590867,-8 -8,-8 l -72,0 z"
       id="path3770"
       style="opacity:0.2;fill:url(#linearGradient3772);fill-opacity:1;fill-rule:nonzero;stroke:none;display:inline" />
    <rect
       transform="scale(1,-1)"
       ry="7"
       rx="7"
       y="-92"
       x="5"
       height="85"
       width="86"
       id="rect3723"
       style="opacity:0.3;fill:url(#linearGradient3725);fill-opacity:1;fill-rule:nonzero;stroke:none;display:inline" />
    <rect
       style="opacity:0.45;fill:url(#linearGradient3721);fill-opacity:1;fill-rule:nonzero;stroke:none;display:inline"
       id="rect3716"
       width="84"
       height="84"
       x="6"
       y="-91"
       rx="6"
       ry="6"
       transform="scale(1,-1)" />
  </g>
  <g
     id="layer1">
    <rect
       ry="6"
       rx="6"
       y="6"
       x="6"
       height="84"
       width="84"
       id="rect2419"
       style="fill:url(#linearGradient3617);fill-opacity:1;fill-rule:nonzero;stroke:none" />
    <path
       id="rect3728"
       d="M 12,6 C 8.676,6 6,8.676 6,12 l 0,2 0,68 0,2 c 0,0.334721 0.04135,0.6507 0.09375,0.96875 0.0487,0.295596 0.09704,0.596915 0.1875,0.875 0.00988,0.03038 0.020892,0.0636 0.03125,0.09375 0.098865,0.287771 0.2348802,0.547452 0.375,0.8125 0.1445918,0.273507 0.3156161,0.535615 0.5,0.78125 0.1843839,0.245635 0.3737765,0.473472 0.59375,0.6875 0.439947,0.428056 0.94291,0.814526 1.5,1.09375 0.278545,0.139612 0.5734731,0.246947 0.875,0.34375 -0.2562018,-0.100222 -0.4867109,-0.236272 -0.71875,-0.375 -0.00741,-0.0044 -0.023866,0.0045 -0.03125,0 -0.031933,-0.0193 -0.062293,-0.04251 -0.09375,-0.0625 -0.120395,-0.0767 -0.2310226,-0.163513 -0.34375,-0.25 -0.1061728,-0.0808 -0.2132809,-0.161112 -0.3125,-0.25 C 8.4783201,88.557317 8.3087904,88.373362 8.15625,88.1875 8.0486711,88.057245 7.9378561,87.922215 7.84375,87.78125 7.818661,87.74287 7.805304,87.69538 7.78125,87.65625 7.716487,87.553218 7.6510225,87.451733 7.59375,87.34375 7.4927417,87.149044 7.3880752,86.928049 7.3125,86.71875 7.30454,86.69694 7.288911,86.6782 7.28125,86.65625 7.2494249,86.5643 7.2454455,86.469419 7.21875,86.375 7.1884177,86.268382 7.1483606,86.171969 7.125,86.0625 7.0521214,85.720988 7,85.364295 7,85 L 7,83 7,15 7,13 C 7,10.218152 9.2181517,8 12,8 l 2,0 68,0 2,0 c 2.781848,0 5,2.218152 5,5 l 0,2 0,68 0,2 c 0,0.364295 -0.05212,0.720988 -0.125,1.0625 -0.04415,0.206893 -0.08838,0.397658 -0.15625,0.59375 -0.0077,0.02195 -0.0233,0.04069 -0.03125,0.0625 -0.06274,0.173739 -0.138383,0.367449 -0.21875,0.53125 -0.04158,0.0828 -0.07904,0.169954 -0.125,0.25 -0.0546,0.09721 -0.126774,0.18835 -0.1875,0.28125 -0.09411,0.140965 -0.204921,0.275995 -0.3125,0.40625 -0.143174,0.17445 -0.303141,0.346998 -0.46875,0.5 -0.01117,0.0102 -0.01998,0.02115 -0.03125,0.03125 -0.138386,0.125556 -0.285091,0.234436 -0.4375,0.34375 -0.102571,0.07315 -0.204318,0.153364 -0.3125,0.21875 -0.0074,0.0045 -0.02384,-0.0044 -0.03125,0 -0.232039,0.138728 -0.462548,0.274778 -0.71875,0.375 0.301527,-0.0968 0.596455,-0.204138 0.875,-0.34375 0.55709,-0.279224 1.060053,-0.665694 1.5,-1.09375 0.219973,-0.214028 0.409366,-0.441865 0.59375,-0.6875 0.184384,-0.245635 0.355408,-0.507743 0.5,-0.78125 0.14012,-0.265048 0.276135,-0.524729 0.375,-0.8125 0.01041,-0.03078 0.02133,-0.06274 0.03125,-0.09375 0.09046,-0.278085 0.1388,-0.579404 0.1875,-0.875 C 89.95865,84.6507 90,84.334721 90,84 l 0,-2 0,-68 0,-2 C 90,8.676 87.324,6 84,6 L 12,6 z"
       style="opacity:0.5;fill:url(#linearGradient3188);fill-opacity:1;fill-rule:nonzero;stroke:none" />
    <path
       style="opacity:0.2;fill:url(#radialGradient3619);fill-opacity:1;fill-rule:nonzero;stroke:none"
       d="M 12,90 C 8.676,90 6,87.324 6,84 L 6,82 6,14 6,12 c 0,-0.334721 0.04135,-0.6507 0.09375,-0.96875 0.0487,-0.295596 0.09704,-0.596915 0.1875,-0.875 C 6.29113,10.12587 6.302142,10.09265 6.3125,10.0625 6.411365,9.774729 6.5473802,9.515048 6.6875,9.25 6.8320918,8.976493 7.0031161,8.714385 7.1875,8.46875 7.3718839,8.223115 7.5612765,7.995278 7.78125,7.78125 8.221197,7.353194 8.72416,6.966724 9.28125,6.6875 9.559795,6.547888 9.8547231,6.440553 10.15625,6.34375 9.9000482,6.443972 9.6695391,6.580022 9.4375,6.71875 c -0.00741,0.0044 -0.023866,-0.0045 -0.03125,0 -0.031933,0.0193 -0.062293,0.04251 -0.09375,0.0625 -0.120395,0.0767 -0.2310226,0.163513 -0.34375,0.25 -0.1061728,0.0808 -0.2132809,0.161112 -0.3125,0.25 C 8.4783201,7.442683 8.3087904,7.626638 8.15625,7.8125 8.0486711,7.942755 7.9378561,8.077785 7.84375,8.21875 7.818661,8.25713 7.805304,8.30462 7.78125,8.34375 7.716487,8.446782 7.6510225,8.548267 7.59375,8.65625 7.4927417,8.850956 7.3880752,9.071951 7.3125,9.28125 7.30454,9.30306 7.288911,9.3218 7.28125,9.34375 7.2494249,9.4357 7.2454455,9.530581 7.21875,9.625 7.1884177,9.731618 7.1483606,9.828031 7.125,9.9375 7.0521214,10.279012 7,10.635705 7,11 l 0,2 0,68 0,2 c 0,2.781848 2.2181517,5 5,5 l 2,0 68,0 2,0 c 2.781848,0 5,-2.218152 5,-5 l 0,-2 0,-68 0,-2 C 89,10.635705 88.94788,10.279012 88.875,9.9375 88.83085,9.730607 88.78662,9.539842 88.71875,9.34375 88.71105,9.3218 88.69545,9.30306 88.6875,9.28125 88.62476,9.107511 88.549117,8.913801 88.46875,8.75 88.42717,8.6672 88.38971,8.580046 88.34375,8.5 88.28915,8.40279 88.216976,8.31165 88.15625,8.21875 88.06214,8.077785 87.951329,7.942755 87.84375,7.8125 87.700576,7.63805 87.540609,7.465502 87.375,7.3125 87.36383,7.3023 87.35502,7.29135 87.34375,7.28125 87.205364,7.155694 87.058659,7.046814 86.90625,6.9375 86.803679,6.86435 86.701932,6.784136 86.59375,6.71875 c -0.0074,-0.0045 -0.02384,0.0044 -0.03125,0 -0.232039,-0.138728 -0.462548,-0.274778 -0.71875,-0.375 0.301527,0.0968 0.596455,0.204138 0.875,0.34375 0.55709,0.279224 1.060053,0.665694 1.5,1.09375 0.219973,0.214028 0.409366,0.441865 0.59375,0.6875 0.184384,0.245635 0.355408,0.507743 0.5,0.78125 0.14012,0.265048 0.276135,0.524729 0.375,0.8125 0.01041,0.03078 0.02133,0.06274 0.03125,0.09375 0.09046,0.278085 0.1388,0.579404 0.1875,0.875 C 89.95865,11.3493 90,11.665279 90,12 l 0,2 0,68 0,2 c 0,3.324 -2.676,6 -6,6 l -72,0 z"
       id="path3615" />
    <rect
       style="fill:url(#linearGradient3941);fill-opacity:1;fill-rule:nonzero;stroke:none"
       id="rect3939"
       width="84"
       height="84"
       x="6"
       y="6"
       rx="6"
       ry="6" />
    <path
       id="path8"
       d="m 14.067427,46.244358 c -0.144872,0 -0.259874,0.112014 -0.278543,0.271822 l -0.507799,3.857035 0.507799,3.790574 c 0.01867,0.159807 0.133671,0.271075 0.278543,0.271075 0.140392,0 0.254647,-0.110521 0.27705,-0.269582 l 0,0 0,-7.46e-4 c 0,0 0,0 0,7.46e-4 l 0.601891,-3.792066 -0.601891,-3.857782 c -0.02166,-0.159061 -0.137405,-0.271075 -0.27705,-0.271075 z m 2.855625,-2.107368 c -0.0239,-0.165781 -0.142632,-0.280036 -0.288998,-0.280036 -0.147112,0 -0.268835,0.117989 -0.288997,0.280036 0,0.0015 -0.682542,6.236225 -0.682542,6.236225 l 0.682542,6.098073 c 0.01942,0.163541 0.141138,0.28153 0.288997,0.28153 0.145619,0 0.264355,-0.115002 0.288251,-0.280037 l 0.776634,-6.099566 -0.775887,-6.236225 z m 10.756385,-5.752321 c -0.280036,0 -0.511533,0.229257 -0.524974,0.520494 l -0.543644,11.473279 0.543644,7.414618 c 0.01419,0.289744 0.244938,0.518254 0.524974,0.518254 0.278543,0 0.509293,-0.229257 0.525722,-0.519748 l 0,0.0022 0.614587,-7.415365 -0.614587,-11.473279 C 28.18873,38.613926 27.95798,38.384669 27.679437,38.384669 Z m -5.567124,3.987719 c -0.215067,0 -0.390557,0.171755 -0.407733,0.401012 l -0.612346,7.602055 0.612346,7.354877 c 0.01643,0.227763 0.192666,0.399518 0.407733,0.399518 0.212828,0 0.388318,-0.171755 0.406987,-0.399518 L 23.215284,50.375455 22.5193,42.771906 C 22.50063,42.544143 22.325141,42.372388 22.112313,42.372388 Z M 33.33692,58.310567 c 0.347245,0 0.629522,-0.280036 0.64371,-0.638483 l 0.53319,-7.289908 -0.532443,-15.275053 c -0.01419,-0.358446 -0.296465,-0.638483 -0.64371,-0.638483 -0.350233,0 -0.633256,0.280783 -0.644457,0.639231 0,7.45e-4 -0.472702,15.273559 -0.472702,15.273559 l 0.472702,7.292895 c 0.0112,0.35546 0.294224,0.636243 0.64371,0.636243 z m 11.582306,0.03435 c 0.477929,0 0.87222,-0.393543 0.881181,-0.877446 l 0,0.0052 0,-0.0052 0.371889,-7.080815 -0.371889,-17.641548 c -0.0082,-0.483156 -0.403252,-0.877447 -0.881181,-0.877447 -0.478675,0 -0.873713,0.393545 -0.881181,0.878195 l -0.33231,17.634826 c 0,0.0112 0.33231,7.091268 0.33231,7.091268 0.0075,0.479423 0.403252,0.872967 0.881181,0.872967 z m -5.835212,-0.02763 c 0.415947,0 0.751244,-0.333803 0.762446,-0.759459 l 0,0.0052 0.452539,-7.179387 -0.453286,-15.385575 c -0.0112,-0.425656 -0.346498,-0.758712 -0.762446,-0.758712 -0.418934,0 -0.754231,0.333056 -0.763192,0.758712 l -0.402506,15.386321 0.403252,7.177894 c 0.009,0.421175 0.344258,0.754978 0.763193,0.754978 z m -14.198967,-0.06721 c 0.247179,0 0.447312,-0.197892 0.465981,-0.458513 l 0.655659,-7.416111 -0.655659,-7.054677 c -0.01792,-0.260621 -0.218055,-0.45702 -0.465981,-0.45702 -0.250912,0 -0.451045,0.197893 -0.466727,0.460007 l -0.577248,7.05169 0.577248,7.415364 c 0.01643,0.261368 0.215815,0.45926 0.466727,0.45926 z M 19.361982,57.84384 c 0.180717,0 0.327083,-0.142632 0.347992,-0.339778 l 0.736309,-7.1301 -0.735562,-7.398936 c -0.02166,-0.197892 -0.168022,-0.340524 -0.348739,-0.340524 -0.182957,0 -0.329322,0.143378 -0.347991,0.340524 0,7.47e-4 -0.648191,7.398936 -0.648191,7.398936 l 0.648191,7.128607 c 0.01792,0.197892 0.164288,0.341271 0.347991,0.341271 z M 41.990419,34.741955 c -0.451792,0 -0.813973,0.359194 -0.822934,0.8192 l -0.367408,14.824008 0.367408,7.133088 c 0.009,0.454032 0.370395,0.813225 0.822934,0.813225 0.451045,0 0.810985,-0.358446 0.82144,-0.818453 l 0,0.006 0.412213,-7.133087 -0.412213,-14.826248 c -0.01046,-0.458513 -0.370395,-0.817706 -0.82144,-0.817706 z M 30.497724,58.325502 c 0.312147,0 0.569781,-0.254646 0.584716,-0.579488 L 31.655955,50.380682 31.08244,36.283276 c -0.01568,-0.325589 -0.272569,-0.579489 -0.584716,-0.579489 -0.315134,0 -0.572021,0.254647 -0.585463,0.579489 0,7.47e-4 -0.507799,14.097406 -0.507799,14.097406 l 0.508546,7.368319 c 0.0127,0.321855 0.269582,0.576501 0.584716,0.576501 z m 6.404246,-0.695237 0,-0.0037 0.492864,-7.243608 -0.492864,-15.789574 c -0.01195,-0.392051 -0.321108,-0.699717 -0.702705,-0.699717 -0.383836,0 -0.692996,0.30692 -0.703451,0.699717 l -0.437604,15.788793 0.438351,7.247343 c 0.01045,0.388317 0.319615,0.695237 0.702704,0.695237 0.382344,0 0.69001,-0.30692 0.702705,-0.697478 l 0,0.003 z M 74.178925,41.281366 c -1.170179,0 -2.286591,0.236724 -3.303683,0.663126 -0.679555,-7.697641 -7.134581,-13.735973 -15.008459,-13.735973 -1.92665,0 -3.804761,0.379356 -5.463324,1.020826 -0.644457,0.249419 -0.816212,0.506306 -0.822187,1.004397 l 0,27.107526 c 0.0067,0.522734 0.412214,0.958098 0.922254,1.009624 0.02166,0.0022 23.522312,0.01419 23.674652,0.01419 4.71656,0 8.540737,-3.824178 8.540737,-8.541483 0,-4.717307 -3.82343,-8.542231 -8.53999,-8.542231 z M 47.835339,30.209846 c -0.513027,0 -0.934202,0.421175 -0.941669,0.938682 l -0.38533,19.240369 0.386076,6.982988 c 0.0067,0.51004 0.427896,0.930468 0.940923,0.930468 0.511533,0 0.932708,-0.420428 0.940175,-0.937936 l 0,0.0082 0.418935,-6.983735 -0.418935,-19.241863 c -0.0075,-0.516013 -0.428642,-0.937188 -0.940175,-0.937188 z M 20.178195,63.7948 c -1.010371,-0.237471 -1.283687,-0.36442 -1.283687,-0.764686 0,-0.282277 0.227763,-0.574261 0.910305,-0.574261 0.583223,0 1.038749,0.236724 1.447975,0.655658 l 0.919267,-0.891636 c -0.601145,-0.628028 -1.32924,-1.00141 -2.320942,-1.00141 -1.257551,0 -2.276883,0.710173 -2.276883,1.86691 0,1.256056 0.819947,1.629438 1.993859,1.902007 1.201543,0.272569 1.420345,0.455526 1.420345,0.865499 0,0.48241 -0.356206,0.69225 -1.110438,0.69225 -0.610106,0 -1.18362,-0.209093 -1.630185,-0.729588 l -0.919266,0.819948 c 0.482409,0.710172 1.41213,1.15599 2.476268,1.15599 1.73996,0 2.504646,-0.819201 2.504646,-2.029705 0,-1.3845 -1.120146,-1.730252 -2.131264,-1.966976 z m 5.865083,-2.576335 c -1.738466,0 -2.76676,1.347162 -2.76676,3.286508 0,1.939345 1.028294,3.28576 2.76676,3.28576 1.738466,0 2.768253,-1.346415 2.768253,-3.28576 0,-1.939346 -1.029787,-3.286508 -2.768253,-3.286508 z m 0,5.307997 c -1.028294,0 -1.456936,-0.883421 -1.456936,-2.020743 0,-1.138068 0.428642,-2.021489 1.456936,-2.021489 1.029787,0 1.456936,0.883421 1.456936,2.021489 0,1.137322 -0.427149,2.020743 -1.456936,2.020743 z m 7.912709,-1.629438 c 0,1.019332 -0.501825,1.648107 -1.311317,1.648107 -0.810239,0 -1.301609,-0.646697 -1.301609,-1.66603 l 0,-3.561316 -1.275473,0 0,3.579239 c 0,1.856454 1.038748,2.894457 2.577082,2.894457 1.620477,0 2.586043,-1.065633 2.586043,-2.91238 l 0,-3.561316 -1.274726,0 0,3.579239 z m 6.773148,-0.883422 c 0,0.35546 0.01792,1.15599 0.01792,1.392715 -0.08214,-0.164288 -0.291238,-0.48241 -0.445818,-0.719881 l -2.25896,-3.369398 -1.219466,0 0,6.374376 1.256804,0 0,-2.804845 c 0,-0.35546 -0.01792,-1.15599 -0.01792,-1.392715 0.0814,0.163542 0.291985,0.48241 0.445818,0.719881 l 2.340358,3.477679 1.138068,0 0,-6.374376 -1.256803,0 0,2.696564 z m 4.889062,-2.695817 -1.993859,0 0,6.374375 1.902007,0 c 1.639147,0 3.260371,-0.947643 3.260371,-3.187187 0,-2.331397 -1.347909,-3.187188 -3.168519,-3.187188 z m -0.09185,5.136241 -0.627281,0 0,-3.89736 0.67358,0 c 1.347909,0 1.903501,0.645951 1.903501,1.948307 0,1.165698 -0.610852,1.949053 -1.9498,1.949053 z m 7.202537,-3.970543 c 0.573514,0 0.937935,0.255393 1.165698,0.69225 l 1.183621,-0.545884 c -0.401012,-0.828161 -1.129854,-1.411384 -2.331397,-1.411384 -1.664536,0 -2.830981,1.347162 -2.830981,3.286508 0,2.011781 1.119399,3.28576 2.785429,3.28576 1.156737,0 1.921423,-0.536923 2.35828,-1.438267 L 53.985685,65.71473 c -0.33679,0.5653 -0.674327,0.810985 -1.247842,0.810985 -0.955858,0 -1.51145,-0.87446 -1.51145,-2.020742 -7.47e-4,-1.182874 0.547378,-2.02149 1.502489,-2.02149 z m 4.727761,-1.165698 -1.274725,0 0,6.374375 3.830898,0 0,-1.25755 -2.556173,0 0,-5.116825 z m 5.914369,-0.09932 c -1.739959,0 -2.768253,1.347162 -2.768253,3.286508 0,1.939345 1.028294,3.28576 2.768253,3.28576 1.738467,0 2.767507,-1.346415 2.767507,-3.28576 0,-1.939346 -1.02904,-3.286508 -2.767507,-3.286508 z m 0,5.307997 c -1.029787,0 -1.456936,-0.883421 -1.456936,-2.020743 0,-1.138068 0.427149,-2.021489 1.456936,-2.021489 1.027547,0 1.455443,0.883421 1.455443,2.021489 0,1.137322 -0.427896,2.020743 -1.455443,2.020743 z m 7.911216,-1.629438 c 0,1.019332 -0.499585,1.648107 -1.309824,1.648107 -0.811732,0 -1.302356,-0.646697 -1.302356,-1.66603 l 0,-3.561316 -1.274725,0 0,3.579239 c 0,1.856454 1.038001,2.894457 2.577081,2.894457 1.620478,0 2.585297,-1.065633 2.585297,-2.91238 l 0,-3.561316 -1.275473,0 0,3.579239 z m 4.862179,-3.579239 -1.993113,0 0,6.374375 1.902008,0 c 1.639893,0 3.259624,-0.947643 3.259624,-3.187187 0,-2.331397 -1.347162,-3.187188 -3.168519,-3.187188 z m -0.0911,5.136241 -0.628029,0 0,-3.89736 0.674328,0 c 1.346415,0 1.902008,0.645951 1.902008,1.948307 0,1.165698 -0.610107,1.949053 -1.948307,1.949053 z"
       style="fill:url(#SVGID_1_)" />
  </g>
  <g
     id="layer5">
    <rect
       clip-path="url(#clipPath3613)"
       ry="12"
       rx="12"
       y="15"
       x="15"
       height="66"
       width="66"
       id="rect3171"
       style="opacity:0.1;fill:url(#linearGradient3613);fill-opacity:1;fill-rule:nonzero;stroke:#ffffff;stroke-width:0.5;stroke-linecap:round;stroke-linejoin:miter;stroke-miterlimit:4;stroke-opacity:1;stroke-dasharray:none;stroke-dashoffset:0;filter:url(#filter3794)" />
  </g>
</svg>
